{
    "asset" : {
        "generator" : "Khronos glTF Blender I/O v3.4.50",
        "version" : "2.0"
    },
    "scene" : 0,
    "scenes" : [
        {
            "name" : "Scene",
            "nodes" : [
                0
            ]
        }
    ],
    "nodes" : [
        {
            "mesh" : 0,
            "name" : "Text",
            "rotation" : [
                0.70710688829422,
                0,
                0,
                0.7071066498756409
            ],
            "translation" : [
                2.7372703552246094,
                0.20017372071743011,
                0.07560183107852936
            ]
        }
    ],
    "meshes" : [
        {
            "name" : "Text",
            "primitives" : [
                {
                    "attributes" : {
                        "POSITION" : 0,
                        "NORMAL" : 1
                    },
                    "indices" : 2
                }
            ]
        }
    ],
    "accessors" : [
        {
            "bufferView" : 0,
            "componentType" : 5126,
            "count" : 17729,
            "max" : [
                2.6255879402160645,
                0.0756022036075592,
                0.42978277802467346
            ],
            "min" : [
                -2.794285297393799,
                -0.07560192048549652,
                -0.48182639479637146
            ],
            "type" : "VEC3"
        },
        {
            "bufferView" : 1,
            "componentType" : 5126,
            "count" : 17729,
            "type" : "VEC3"
        },
        {
            "bufferView" : 2,
            "componentType" : 5123,
            "count" : 103212,
            "type" : "SCALAR"
        }
    ],
    "bufferViews" : [
        {
            "buffer" : 0,
            "byteLength" : 212748,
            "byteOffset" : 0,
            "target" : 34962
        },
        {
            "buffer" : 0,
            "byteLength" : 212748,
            "byteOffset" : 212748,
            "target" : 34962
        },
        {
            "buffer" : 0,
            "byteLength" : 206424,
            "byteOffset" : 425496,
            "target" : 34963
        }
    ],
    "buffers" : [
        {
            "byteLength" : 631920,
            "uri" : "data:application/octet-stream;base64,"
        }
    ]
}
